<svg width="1024" height="1024" viewBox="0 0 1024 1024" xmlns="http://www.w3.org/2000/svg">
  <!-- transparent background; launcher supplies #16423C via app.json -->
  <!-- shield glyph kept inside the central safe zone (~66%) -->
  <path d="M512 288 L712 354 v200 c0 139 -97 217 -200 267 c-103 -50 -200 -128 -200 -267 v-200 z"
    fill="#FFFDF6"/>
  <rect x="428" y="408" width="126" height="20" rx="4" fill="#221F1A"/>
  <rect x="428" y="456" width="168" height="14" rx="4" fill="#C9C0AC"/>
  <rect x="428" y="492" width="168" height="14" rx="4" fill="#C9C0AC"/>
  <g fill="#8A8171">
    <rect x="428" y="540" width="24" height="8" rx="3"/>
    <rect x="464" y="540" width="24" height="8" rx="3"/>
    <rect x="500" y="540" width="24" height="8" rx="3"/>
    <rect x="536" y="540" width="24" height="8" rx="3"/>
    <rect x="572" y="540" width="24" height="8" rx="3"/>
  </g>
  <path d="M448 608 l50 50 l86 -94" stroke="#16423C" stroke-width="32"
    stroke-linecap="round" stroke-linejoin="round" fill="none"/>
</svg>
