<svg width="1024" height="1024" viewBox="0 0 1024 1024" xmlns="http://www.w3.org/2000/svg">
  <rect width="1024" height="1024" fill="#16423C"/>
  <!-- shield outline -->
  <path d="M512 128 L800 224 v288 c0 200 -140 312 -288 384 c-148 -72 -288 -184 -288 -384 v-288 z"
    fill="#FFFDF6"/>
  <!-- receipt printed lines inside the shield -->
  <rect x="392" y="300" width="180" height="26" rx="4" fill="#221F1A"/>
  <rect x="392" y="366" width="240" height="18" rx="4" fill="#C9C0AC"/>
  <rect x="392" y="414" width="240" height="18" rx="4" fill="#C9C0AC"/>
  <rect x="392" y="462" width="170" height="18" rx="4" fill="#C9C0AC"/>
  <!-- dashed tear line -->
  <g fill="#8A8171">
    <rect x="392" y="528" width="32" height="10" rx="3"/>
    <rect x="440" y="528" width="32" height="10" rx="3"/>
    <rect x="488" y="528" width="32" height="10" rx="3"/>
    <rect x="536" y="528" width="32" height="10" rx="3"/>
    <rect x="584" y="528" width="32" height="10" rx="3"/>
  </g>
  <!-- guard check -->
  <path d="M420 620 l70 70 l120 -130" stroke="#16423C" stroke-width="44"
    stroke-linecap="round" stroke-linejoin="round" fill="none"/>
</svg>
